<?xml version="1.0" encoding="utf-8"?>
<!-- Generator: Adobe Illustrator 16.0.4, SVG Export Plug-In . SVG Version: 6.00 Build 0)  -->
<!DOCTYPE svg PUBLIC "-//W3C//DTD SVG 1.1//EN" "http://www.w3.org/Graphics/SVG/1.1/DTD/svg11.dtd">
<svg version="1.1" xmlns="http://www.w3.org/2000/svg" xmlns:xlink="http://www.w3.org/1999/xlink" x="0px" y="0px" width="165px"
	 height="70px" viewBox="0 0 165 70" enable-background="new 0 0 165 70" xml:space="preserve">
<g id="Layer_1">
	
		<radialGradient id="SVGID_1_" cx="41.1323" cy="-3.0356" r="116.9038" gradientTransform="matrix(-0.8303 0.5574 -0.4031 -0.6005 74.0593 -27.7844)" gradientUnits="userSpaceOnUse">
		<stop  offset="0.3086" style="stop-color:#DEDEDE"/>
		<stop  offset="0.392" style="stop-color:#9E9E9E"/>
		<stop  offset="0.522" style="stop-color:#3F3F3F"/>
		<stop  offset="0.5807" style="stop-color:#1A1A1A"/>
		<stop  offset="0.6089" style="stop-color:#202020"/>
		<stop  offset="0.8339" style="stop-color:#4D4D4D"/>
	</radialGradient>
	<path fill="url(#SVGID_1_)" d="M15.588,31.615c0-13.049,17.466-24.389,43.138-30.146C24.623,5.791-0.233,19.167-0.233,35
		c0,19.331,37.041,35,82.733,35c20.445,0,39.154-3.139,53.592-8.337c-11.565,2.632-24.818,4.127-38.906,4.127
		C52.121,65.79,15.588,50.489,15.588,31.615z"/>
	<radialGradient id="SVGID_2_" cx="81.9243" cy="-57.5869" r="132.8217" gradientUnits="userSpaceOnUse">
		<stop  offset="0" style="stop-color:#DEDEDE"/>
		<stop  offset="0.6091" style="stop-color:#DEDEDE"/>
		<stop  offset="0.6587" style="stop-color:#BFBFBF"/>
		<stop  offset="0.7675" style="stop-color:#717171"/>
		<stop  offset="0.8957" style="stop-color:#0D0D0D"/>
		<stop  offset="0.9081" style="stop-color:#131313"/>
		<stop  offset="0.9255" style="stop-color:#262626"/>
		<stop  offset="0.9459" style="stop-color:#444444"/>
		<stop  offset="0.9509" style="stop-color:#4D4D4D"/>
	</radialGradient>
	<path fill="url(#SVGID_2_)" d="M165.233,35c0-19.33-37.041-35-82.733-35c-8.265,0-16.244,0.515-23.774,1.469
		C33.054,7.227,15.588,18.566,15.588,31.615c0,18.874,36.533,34.175,81.598,34.175c14.088,0,27.341-1.496,38.906-4.127
		C153.92,55.243,165.233,45.681,165.233,35z"/>
	<ellipse fill="#490F71" cx="82.436" cy="34.952" rx="69.584" ry="29.481"/>
	
		<radialGradient id="eyebrow_shadow_right_1_" cx="125.0479" cy="23.3047" r="21.2997" fx="125.0368" fy="23.3045" gradientTransform="matrix(-0.0169 -0.9999 1.6456 -0.0279 88.8154 148.9841)" gradientUnits="userSpaceOnUse">
		<stop  offset="0" style="stop-color:#000000;stop-opacity:0.3"/>
		<stop  offset="1" style="stop-color:#000000;stop-opacity:0"/>
	</radialGradient>
	<ellipse id="eyebrow_shadow_right_2_" fill="url(#eyebrow_shadow_right_1_)" cx="82.895" cy="35.142" rx="67.931" ry="28.039"/>
	
		<radialGradient id="lower_left_rim_shadow_1_" cx="634.3643" cy="-1092.1196" r="38.0094" fx="627.7449" fy="-1071.3595" gradientTransform="matrix(0.0031 1 2.5435 -0.0079 2877.6846 -615.2505)" gradientUnits="userSpaceOnUse">
		<stop  offset="0.9571" style="stop-color:#000000;stop-opacity:0"/>
		<stop  offset="0.99" style="stop-color:#000000;stop-opacity:0.33"/>
	</radialGradient>
	<path id="lower_left_rim_shadow" fill="url(#lower_left_rim_shadow_1_)" d="M98.452,59.999c11.041,0,20.702-1.422,28.978-3.72
		c-11.938,4.297-27.547,6.901-44.631,6.901c-37.517,0-67.931-12.554-67.931-28.039c0-1.927,0.471-3.808,1.368-5.626
		C16.896,50.93,61.83,59.999,98.452,59.999z"/>
	
		<radialGradient id="bottom_right_glow_1_" cx="119.7432" cy="67.3354" r="36.8928" gradientTransform="matrix(-9.633738e-04 -1 2.0465 -0.002 -17.9434 187.2113)" gradientUnits="userSpaceOnUse">
		<stop  offset="0" style="stop-color:#FFCCFF;stop-opacity:0.2"/>
		<stop  offset="1" style="stop-color:#FFCCFF;stop-opacity:0"/>
	</radialGradient>
	<ellipse id="bottom_right_glow_2_" fill="url(#bottom_right_glow_1_)" cx="82.895" cy="35.142" rx="67.931" ry="28.039"/>
	
		<radialGradient id="lower_right_rim_light_1_" cx="98.0234" cy="-1097.168" r="32.7298" fx="92.3235" fy="-1079.2915" gradientTransform="matrix(-0.0031 1 -2.5435 -0.0079 -2720.1831 -73.9038)" gradientUnits="userSpaceOnUse">
		<stop  offset="0.9702" style="stop-color:#FFF2FF;stop-opacity:0"/>
		<stop  offset="0.99" style="stop-color:#FFF2FF;stop-opacity:0.5"/>
	</radialGradient>
	<path id="lower_right_rim_light" fill="url(#lower_right_rim_light_1_)" d="M67.145,59.999c-11.041,0-20.702-1.422-28.977-3.72
		c11.937,4.297,27.547,6.901,44.631,6.901c37.517,0,67.931-12.554,67.931-28.039c0-1.927-0.471-3.808-1.368-5.626
		C148.701,50.93,103.767,59.999,67.145,59.999z"/>
	
		<radialGradient id="top_left_glow_circle_1_" cx="49.4507" cy="15.042" r="40.9061" fx="46.4286" fy="14.5953" gradientTransform="matrix(0.0214 0.9998 -1.9051 0.0408 77.0485 -35.011)" gradientUnits="userSpaceOnUse">
		<stop  offset="0" style="stop-color:#9042C1"/>
		<stop  offset="0.1864" style="stop-color:#8A3DBD;stop-opacity:0.8605"/>
		<stop  offset="0.4302" style="stop-color:#7A2FB1;stop-opacity:0.678"/>
		<stop  offset="0.6012" style="stop-color:#6A22A6;stop-opacity:0.55"/>
		<stop  offset="1" style="stop-color:#6A22A6;stop-opacity:0"/>
	</radialGradient>
	<ellipse id="top_left_glow_circle_2_" fill="url(#top_left_glow_circle_1_)" cx="82.895" cy="35.142" rx="67.931" ry="28.039"/>
	
		<radialGradient id="top_left_rim_eyebrow_1_" cx="91.5225" cy="39.4033" r="33.0635" fx="81.1644" fy="43.4248" gradientTransform="matrix(0.0031 -1 2.514 0.0078 -7.8206 130.6176)" gradientUnits="userSpaceOnUse">
		<stop  offset="0.8847" style="stop-color:#FFFFFF;stop-opacity:0"/>
		<stop  offset="1" style="stop-color:#FFFFFF;stop-opacity:0.7"/>
	</radialGradient>
	<path id="top_left_rim_eyebrow" fill="url(#top_left_rim_eyebrow_1_)" d="M98.646,10.284c11.04,0,20.7,1.421,28.976,3.72
		c-11.936-4.298-27.546-6.902-44.63-6.902c-37.518,0-67.931,12.554-67.931,28.04c0,1.927,0.472,3.808,1.369,5.625
		C17.089,19.353,62.023,10.284,98.646,10.284z"/>
	<path opacity="0.4" d="M30.641,27.752c2.059,0,4.017,0.573,5.874,1.754l-1.586,3.965c-1.292-0.981-2.534-1.47-3.747-1.47
		c-2.801,0-4.625,1.922-4.625,4.012c0,2.192,1.484,3.643,3.512,3.643c1.382,0,2.597-0.438,3.981-1.281l0.812,4.202
		c-1.958,0.945-3.714,1.451-5.537,1.451c-4.659,0-7.832-3.059-7.832-7.439C21.493,31.665,25.308,27.752,30.641,27.752z
		 M95.544,32.001c1.213,0,2.456,0.489,3.746,1.47l1.586-3.965c-1.855-1.181-3.815-1.754-5.873-1.754
		c-5.334,0-9.148,3.913-9.148,8.836c0,4.38,3.175,7.439,7.832,7.439c1.823,0,3.578-0.505,5.537-1.451l-0.812-4.202
		c-1.384,0.843-2.6,1.281-3.983,1.281c-2.024,0-3.511-1.45-3.511-3.643C90.918,33.923,92.741,32.001,95.544,32.001z M53.607,28.46
		l-2.6,14.826h-5.165l0.269-1.546c-1.519,1.411-2.902,2.119-4.455,2.119c-3.006,0-5.131-2.487-5.131-6.497
		c0-5.461,3.173-9.441,7.325-9.441c1.688,0,2.971,0.64,4.354,2.058l0.235-1.519H53.607z M47.632,33.113
		c-0.54-1.079-1.282-1.584-2.296-1.584c-1.991,0-3.78,2.292-3.78,5.699c0,1.72,0.91,2.832,2.295,2.832
		c1.553,0,2.801-1.348,3.274-3.945L47.632,33.113z M64.327,28.022c-1.654,0-3.003,1.112-4.219,3.338l0.506-2.9h-4.692l-2.633,14.826
		h5.232l0.979-5.72c0.507-2.901,1.519-4.318,3.68-4.318c0.473,0,1.013,0.068,1.687,0.236l0.947-5.226
		C65.273,28.09,64.766,28.022,64.327,28.022z M73.288,31.09c1.079,0,2.531,0.506,4.219,1.55l1.384-2.999
		c-1.959-1.248-3.883-1.855-5.976-1.855c-3.679,0-6.043,2.124-6.043,4.788c0,1.989,1.148,3.54,3.41,4.62l0.98,0.472
		c1.248,0.573,1.923,0.944,1.923,1.72c0,0.673-0.675,1.281-1.789,1.281c-1.25,0-2.87-0.54-4.861-1.686l-1.351,3.161
		c1.958,1.211,4.085,1.817,6.347,1.817c3.916,0,6.312-2.119,6.312-4.946c0-1.887-1.182-3.539-3.208-4.416l-0.912-0.372
		c-1.518-0.64-2.262-1.044-2.262-1.854C71.463,31.665,72.139,31.09,73.288,31.09z M82.047,38.105c-1.519,0-2.803,1.248-2.803,2.798
		c0,1.473,1.284,2.788,2.803,2.788c1.591,0,2.813-1.281,2.813-2.788C84.86,39.318,83.638,38.105,82.047,38.105z M117.391,35.103
		c0,4.992-3.849,8.857-8.71,8.857c-4.727,0-7.831-3.025-7.831-7.407c0-4.888,3.814-8.801,8.911-8.801
		C114.252,27.752,117.391,30.754,117.391,35.103z M112.09,35.171c0-2.158-1.08-3.506-2.565-3.506c-1.721,0-3.376,2.056-3.376,4.888
		c0,2.158,1.147,3.542,2.634,3.542C110.537,40.095,112.09,38.037,112.09,35.171z M139.018,28.022c-1.957,0-3.655,1.012-5.227,3.103
		c-0.481-1.957-1.957-3.103-4.04-3.103c-1.799,0-3.4,0.911-4.845,2.665l0.354-2.227h-4.843l-2.502,14.826h4.906l1.254-7.272
		c0.447-2.663,2.019-3.878,3.366-3.878c0.834,0,1.347,0.574,1.347,1.451c0,0.337-0.063,0.774-0.161,1.28l-1.41,8.419h4.905
		l1.251-7.272c0.449-2.663,2.021-3.878,3.368-3.878c0.832,0,1.314,0.574,1.314,1.451c0,0.337-0.034,0.774-0.131,1.281l-1.408,8.418
		h4.873l1.702-9.936c0.062-0.372,0.095-0.71,0.095-1.046C143.187,29.742,141.55,28.022,139.018,28.022z"/>
	<g>
		<linearGradient id="SVGID_3_" gradientUnits="userSpaceOnUse" x1="81.6675" y1="26.8882" x2="81.6675" y2="43.1636">
			<stop  offset="0.6107" style="stop-color:#FFFFFF"/>
			<stop  offset="0.791" style="stop-color:#E0E0E0"/>
		</linearGradient>
		<path fill="url(#SVGID_3_)" d="M29.969,26.888c2.059,0,4.017,0.574,5.874,1.754l-1.586,3.965c-1.292-0.98-2.535-1.47-3.748-1.47
			c-2.801,0-4.625,1.922-4.625,4.012c0,2.193,1.484,3.643,3.512,3.643c1.383,0,2.598-0.438,3.981-1.282l0.812,4.202
			c-1.958,0.945-3.714,1.451-5.537,1.451c-4.659,0-7.832-3.059-7.832-7.44C20.821,30.801,24.636,26.888,29.969,26.888z
			 M94.872,31.138c1.213,0,2.456,0.489,3.746,1.47l1.586-3.965c-1.855-1.18-3.815-1.754-5.873-1.754
			c-5.334,0-9.148,3.913-9.148,8.835c0,4.381,3.175,7.44,7.832,7.44c1.823,0,3.578-0.506,5.537-1.451l-0.812-4.202
			c-1.384,0.843-2.6,1.282-3.983,1.282c-2.024,0-3.511-1.45-3.511-3.643C90.246,33.06,92.069,31.138,94.872,31.138z M52.936,27.597
			l-2.6,14.826h-5.164l0.269-1.546c-1.519,1.411-2.902,2.119-4.455,2.119c-3.006,0-5.131-2.487-5.131-6.497
			c0-5.461,3.173-9.441,7.325-9.441c1.688,0,2.971,0.641,4.354,2.058l0.236-1.518H52.936z M46.96,32.25
			c-0.54-1.079-1.281-1.584-2.295-1.584c-1.991,0-3.78,2.292-3.78,5.699c0,1.72,0.91,2.832,2.295,2.832
			c1.553,0,2.801-1.348,3.274-3.946L46.96,32.25z M63.655,27.158c-1.654,0-3.003,1.112-4.219,3.338l0.506-2.9H55.25l-2.633,14.826
			h5.232l0.979-5.72c0.507-2.901,1.519-4.318,3.68-4.318c0.473,0,1.013,0.068,1.687,0.236l0.947-5.226
			C64.601,27.226,64.094,27.158,63.655,27.158z M72.616,30.227c1.079,0,2.532,0.505,4.219,1.55l1.385-2.999
			c-1.959-1.249-3.883-1.855-5.976-1.855c-3.679,0-6.043,2.124-6.043,4.788c0,1.99,1.149,3.54,3.41,4.62l0.98,0.472
			c1.248,0.574,1.923,0.944,1.923,1.721c0,0.673-0.676,1.281-1.789,1.281c-1.25,0-2.87-0.54-4.861-1.686l-1.351,3.161
			c1.958,1.211,4.085,1.817,6.347,1.817c3.916,0,6.312-2.12,6.312-4.946c0-1.887-1.182-3.539-3.208-4.416l-0.911-0.372
			c-1.518-0.64-2.263-1.045-2.263-1.854C70.791,30.801,71.467,30.227,72.616,30.227z M81.375,37.241
			c-1.519,0-2.803,1.248-2.803,2.798c0,1.473,1.284,2.788,2.803,2.788c1.591,0,2.813-1.281,2.813-2.788
			C84.188,38.455,82.966,37.241,81.375,37.241z M116.719,34.239c0,4.992-3.849,8.857-8.71,8.857c-4.727,0-7.831-3.025-7.831-7.407
			c0-4.888,3.814-8.801,8.911-8.801C113.58,26.888,116.719,29.89,116.719,34.239z M111.418,34.307c0-2.158-1.08-3.506-2.565-3.506
			c-1.721,0-3.376,2.056-3.376,4.888c0,2.158,1.147,3.542,2.634,3.542C109.865,39.231,111.418,37.173,111.418,34.307z
			 M138.346,27.158c-1.956,0-3.655,1.013-5.227,3.104c-0.481-1.957-1.957-3.104-4.04-3.104c-1.799,0-3.4,0.911-4.845,2.665
			l0.354-2.227h-4.843l-2.502,14.826h4.906l1.253-7.272c0.448-2.664,2.02-3.878,3.367-3.878c0.834,0,1.347,0.574,1.347,1.451
			c0,0.337-0.063,0.774-0.161,1.28l-1.41,8.419h4.905l1.251-7.272c0.449-2.664,2.021-3.878,3.368-3.878
			c0.832,0,1.314,0.574,1.314,1.451c0,0.337-0.034,0.774-0.131,1.281l-1.408,8.418h4.873l1.702-9.936
			c0.062-0.372,0.095-0.709,0.095-1.045C142.515,28.878,140.878,27.158,138.346,27.158z"/>
	</g>
	<linearGradient id="SVGID_4_" gradientUnits="userSpaceOnUse" x1="111.6357" y1="72.6943" x2="66.992" y2="14.9904">
		<stop  offset="0" style="stop-color:#231F20;stop-opacity:0"/>
		<stop  offset="1" style="stop-color:#231F20;stop-opacity:0.3"/>
	</linearGradient>
	<path fill="url(#SVGID_4_)" d="M151.828,34.952c0,16.176-31.068,29.29-69.392,29.29c-38.325,0-69.393-13.113-69.393-29.29
		s31.068-29.29,69.393-29.29C120.76,5.663,151.828,18.776,151.828,34.952z M82.875,7.102c-37.506,0-67.912,12.55-67.912,28.032
		c0,15.48,30.405,28.031,67.912,28.031c37.507,0,67.912-12.551,67.912-28.031C150.787,19.652,120.382,7.102,82.875,7.102z"/>
	<g>
		<path d="M151.854,59.417h-0.999v-0.405h2.459v0.405h-0.999v2.809h-0.461V59.417z"/>
		<path d="M153.78,59.013h0.76l1.008,2.67l0.99-2.67h0.76v3.213h-0.46v-2.781h-0.011l-1.062,2.781h-0.451l-1.063-2.781h-0.01v2.781
			h-0.46V59.013z"/>
	</g>
	
		<radialGradient id="inner_ring-gradient_1_" cx="81.9575" cy="24.9375" r="94.0247" fx="82.9614" fy="24.0574" gradientTransform="matrix(-0.9953 0.0623 -0.0317 -0.5032 164.2916 28.9651)" gradientUnits="userSpaceOnUse">
		<stop  offset="0.3018" style="stop-color:#666666"/>
		<stop  offset="0.4761" style="stop-color:#626262"/>
		<stop  offset="0.6463" style="stop-color:#565656"/>
		<stop  offset="0.7397" style="stop-color:#4D4D4D"/>
		<stop  offset="0.7494" style="stop-color:#424242"/>
		<stop  offset="0.7815" style="stop-color:#252525"/>
		<stop  offset="0.8092" style="stop-color:#131313"/>
		<stop  offset="0.8292" style="stop-color:#0D0D0D"/>
		<stop  offset="0.8404" style="stop-color:#131313"/>
		<stop  offset="0.8558" style="stop-color:#252525"/>
		<stop  offset="0.8736" style="stop-color:#424242"/>
		<stop  offset="0.8931" style="stop-color:#6A6A6A"/>
		<stop  offset="0.9124" style="stop-color:#999999"/>
		<stop  offset="0.9442" style="stop-color:#B8B8B8"/>
		<stop  offset="1" style="stop-color:#F7F7F7"/>
	</radialGradient>
	<path id="inner_ring-gradient" fill="url(#inner_ring-gradient_1_)" d="M82.436,67.025c41.769,0,75.631-14.36,75.631-32.073
		c0-17.714-33.862-32.073-75.631-32.073c-41.77,0-75.631,14.359-75.631,32.073C6.805,52.666,40.667,67.025,82.436,67.025z
		 M153.46,34.952c0,16.441-31.799,29.77-71.024,29.77c-39.226,0-71.024-13.329-71.024-29.77c0-16.441,31.798-29.77,71.024-29.77
		C121.661,5.183,153.46,18.511,153.46,34.952z"/>
	
		<radialGradient id="outer_ring-rim_shadow_1_" cx="83.8438" cy="34.3604" r="90.2415" fx="79.642" fy="25.7344" gradientTransform="matrix(0.9999 -0.0167 0.0066 0.396 -0.2153 22.1524)" gradientUnits="userSpaceOnUse">
		<stop  offset="0.8978" style="stop-color:#4D4D4D;stop-opacity:0"/>
		<stop  offset="1" style="stop-color:#4D4D4D"/>
	</radialGradient>
	<path id="outer_ring-rim_shadow" fill="url(#outer_ring-rim_shadow_1_)" d="M165.233,35c0,19.331-37.041,35-82.733,35
		S-0.233,54.331-0.233,35c0-19.33,37.041-35,82.733-35S165.233,15.67,165.233,35z M5.558,34.84c0,18.234,34.505,33.017,77.07,33.017
		c42.564,0,77.07-14.782,77.07-33.017S125.192,1.824,82.628,1.824C40.063,1.824,5.558,16.605,5.558,34.84z"/>
	
		<radialGradient id="outer_ring-rim_highlight_1_" cx="81.9883" cy="34.3604" r="79.7596" fx="65.3702" fy="8.8593" gradientTransform="matrix(1 0.0011 -4.740664e-04 0.4252 0.0165 19.659)" gradientUnits="userSpaceOnUse">
		<stop  offset="0.9406" style="stop-color:#FFFFFF;stop-opacity:0.8"/>
		<stop  offset="1" style="stop-color:#FFFFFF;stop-opacity:0"/>
	</radialGradient>
	<path id="outer_ring-rim_highlight" fill="url(#outer_ring-rim_highlight_1_)" d="M165.233,35c0,19.331-37.041,35-82.733,35
		S-0.233,54.331-0.233,35c0-19.33,37.041-35,82.733-35S165.233,15.67,165.233,35z M5.558,34.84c0,18.234,34.505,33.017,77.07,33.017
		c42.564,0,77.07-14.782,77.07-33.017S125.192,1.824,82.628,1.824C40.063,1.824,5.558,16.605,5.558,34.84z"/>
	<path fill="#CCCCCC" d="M153.651,34.952c0,16.547-31.884,29.962-71.215,29.962c-39.331,0-71.216-13.415-71.216-29.962
		S43.105,4.991,82.436,4.991C121.768,4.991,153.651,18.405,153.651,34.952z M82.436,5.663c-38.325,0-69.393,13.113-69.393,29.29
		s31.068,29.29,69.393,29.29c38.324,0,69.392-13.113,69.392-29.29S120.76,5.663,82.436,5.663z"/>
	<path fill="#FFFFFF" d="M82.628,1.824c42.564,0,77.07,14.782,77.07,33.016s-34.506,33.017-77.07,33.017
		c-42.565,0-77.07-14.782-77.07-33.017S40.063,1.824,82.628,1.824z M82.436,66.833c41.664,0,75.44-14.274,75.44-31.881
		c0-17.607-33.776-31.881-75.44-31.881c-41.664,0-75.439,14.273-75.439,31.881C6.997,52.559,40.772,66.833,82.436,66.833z"/>
</g>
<g id="Layer_2">
</g>
</svg>
