<svg xmlns="http://www.w3.org/2000/svg" xmlns:xlink="http://www.w3.org/1999/xlink" viewBox="0 0 16 16">
<g>
	<path fill="#C0BFBF" d="M15.923,6.922C15.407,2.938,12.069,0,8.025,0c-4.401,0-8.02,3.564-8.02,7.966
		c0,4.026,3.116,7.35,6.816,7.888V6.922H15.923z"/>
	<path fill="#FFFFFF" d="M11.082,15.461H9.384v-0.284h2.28c0.775-0.569,1.476-1.139,2.077-1.708H9.384v-0.284h4.609
		c0.402-0.285,0.755-0.854,1.046-1.424h-3.663v-0.284h3.802c0.522-1.139,0.816-2.245,0.816-3.507c0-0.358-0.025-0.762-0.071-1.047
		H6.822v8.931C7.392,15.903,7.601,16,7.976,16C9.059,16,10.141,15.746,11.082,15.461z M9.438,10.601l0.596,0.562l1.31-1.706
		l0.431,0.33l-1.676,2.184l-1.033-0.976L9.438,10.601z"/>
	<path fill="#FFFFFF" d="M14.603,7.975H9.557c-0.077,0-0.143-0.064-0.143-0.142V5.71c0-0.078,0.065-0.142,0.143-0.142h5.046
		c0.078,0,0.143,0.064,0.143,0.142v2.123C14.745,7.911,14.681,7.975,14.603,7.975"/>
	<path fill="#C0BFBF" d="M14.608,8.111H9.551c-0.149,0-0.271-0.122-0.271-0.271V5.704c0-0.149,0.122-0.271,0.271-0.271h5.058
		c0.149,0,0.271,0.122,0.271,0.271v2.136C14.881,7.989,14.759,8.111,14.608,8.111 M14.608,7.839v0.136V7.839z M9.551,5.704v2.136
		h5.058V5.704H9.551z"/>
</g>
<g>
	<rect x="3.881" y="3.179" fill="#FFFFFF" width="1.66" height="4.53"/>
	<path fill="#943995" d="M7.941,6.787C7.858,6.641,6.936,5.042,6.237,3.832c-0.427-0.74-0.77-1.333-0.79-1.369
		C5.26,2.175,4.969,2.011,4.639,2.011C4.28,2.014,3.946,2.219,3.72,2.577L3.663,2.674c-0.869,1.488-2.34,4.011-2.438,4.189
		C1.029,7.229,1.099,7.694,1.392,7.972C1.564,8.135,1.79,8.226,2.062,8.226h0.005l5.061,0.004c0.553,0,0.97-0.384,0.97-0.894
		C8.098,7.154,8.045,6.969,7.941,6.787 M4.25,3.542C4.238,3.456,4.317,3.418,4.37,3.418h0.486c0.053,0,0.13,0.054,0.12,0.124v0.981
		L4.831,6.429c-0.02,0.033-0.015,0.055-0.061,0.055H4.456c-0.044,0-0.043-0.022-0.06-0.055L4.25,4.523V3.542z M4.607,7.505
		c-0.184,0-0.335-0.15-0.335-0.334c0-0.187,0.151-0.336,0.335-0.336c0.187,0,0.336,0.149,0.336,0.336
		C4.942,7.355,4.794,7.505,4.607,7.505"/>
</g>
<path fill="#C0BFBF" d="M11.376,11.761h3.663c0.055-0.106,0.091-0.187,0.139-0.284h-3.802V11.761z"/>
<path fill="#C0BFBF" d="M9.384,13.469h4.357c0.099-0.098,0.135-0.151,0.252-0.284H9.384V13.469z"/>
<path fill="#C0BFBF" d="M9.384,15.461h1.698c0.348-0.124,0.428-0.178,0.582-0.284h-2.28V15.461z"/>
<polygon fill="#C0BFBF" points="11.774,9.787 11.344,9.456 10.034,11.163 9.438,10.601 9.065,10.995 10.099,11.971 "/>
<path fill="#E3E3E3" d="M4.271,9.465c-1.137,0.833-1.414,2.404-0.661,3.574l-0.541,0.114l-2.504,1.685l0.539,0.735l2.36-1.88
	l0.269-0.478c0.874,1.143,2.509,1.383,3.675,0.529c1.18-0.864,1.437-2.528,0.571-3.708C7.114,8.856,5.45,8.6,4.271,9.465
	 M3.957,12.983c-0.76-1.038-0.534-2.499,0.503-3.26c1.037-0.76,2.5-0.534,3.26,0.503s0.534,2.499-0.504,3.26
	C6.18,14.246,4.717,14.021,3.957,12.983"/>
</svg>
