<svg xmlns="http://www.w3.org/2000/svg" xmlns:xlink="http://www.w3.org/1999/xlink" viewBox="0 0 16 16">
<path fill="#C0BFBF" d="M15.819,9.584l-0.71,0.359l-3.465-1.88l-0.434,0.236c0.306,0.072,0.599,0.143,0.813,0.197
	c0.729,0.187,0.874,0.275,1.105,0.481c0.249,0.217,0.352,0.807,0.362,0.874l-0.022,0.51c0.018,0.043,0.051,0.127,0.085,0.221
	c0.054,0.162-0.032,0.73-0.209,0.832c-0.319,0.182-1.311,0.424-1.426,0.428c0.149-0.312,0.099-1.234-0.624-1.688
	c-0.59-0.408-1.247-0.289-1.736,0.021c-0.698,0.475-0.733,1.406-0.589,1.701c-1.347-0.006-6.632-0.008-6.632-0.008
	s0.057-0.268,0.057-0.439c0-0.457-0.345-1.473-1.542-1.473c-0.227,0.01-0.417,0.051-0.583,0.113
	c0.027,0.102,0.056,0.203,0.086,0.305c0.159-0.068,0.333-0.109,0.517-0.105c0.688,0.012,1.236,0.578,1.226,1.27
	c-0.008,0.449-0.256,0.836-0.618,1.049c0.015,0.02,0.03,0.041,0.045,0.059H13.42V13.9C14.513,12.781,15.443,11.279,15.819,9.584z"/>
<rect x="5.722" y="13.502" fill="none" width="1.426" height="0.57"/>
<path fill="#E3E3E3" d="M1.527,12.646c0.354,0.57,0.761,0.855,1.212,1.426h2.982v-0.57h1.426v0.57h6.059
	c0.042,0,0.214-0.133,0.214-0.172v-1.254H1.527z"/>
<path fill="#E3E3E3" d="M5.722,15.664c0.57,0.121,0.855,0.209,1.426,0.258v-1.85H5.722V15.664z"/>
<path fill="#E3E3E3" d="M15.877,6.606l-0.768,0.388l-3.465-1.88l-3.453,1.88l-3.325-1.88v2.95l3.325,1.88l3.459-1.88l3.462,1.88
	l0.708-0.359C15.936,9.068,16,8.534,16,7.985C16,7.515,15.956,7.054,15.877,6.606z"/>
<path fill="none" d="M7.461,8.134C7.438,7.955,7.646,7.835,7.646,7.835C6.881,7.417,6.779,7.4,6.609,7.318
	c-0.254-0.12-0.788-0.373-1.504-0.448C5.03,6.863,4.952,6.854,4.867,6.846v1.218l1.065,0.602c0.902,0.081,1.559,0.136,1.559,0.136
	S7.484,8.317,7.461,8.134z"/>
<path fill="#C0BFBF" d="M4.867,6.846C4.223,6.784,3.181,6.738,0.199,7.117C0.104,7.13,0.096,7.171,0.107,7.222
	c0.012,0.053,0.428,0.711,0.63,0.87c0.137,0.107,3.243,0.4,5.194,0.574L4.867,8.063V6.846z"/>
<path fill="#FFFFFF" d="M13.554,10.582c-0.034-0.094-0.066-0.178-0.084-0.219l0.022-0.512c-0.011-0.066-0.113-0.656-0.362-0.874
	c-0.231-0.206-0.378-0.295-1.105-0.48C11.809,8.442,11.517,8.372,11.21,8.3c-0.245-0.058-0.499-0.117-0.732-0.17
	C10.06,8.033,9.712,7.953,9.623,7.927c-0.16-0.048-0.975-0.331-1.329-0.514C7.206,6.855,5.985,6.252,5.258,6.174
	C5.204,6.168,5.074,6.156,4.867,6.146c-0.208-0.011-0.493-0.02-0.86-0.02c-0.892,0-2.229,0.055-3.853,0.276
	C0.053,6.906,0,7.427,0,7.96c0,0.716,0.096,1.432,0.271,2.11c0.165-0.062,0.355-0.105,0.582-0.113c1.197,0,1.542,1.016,1.542,1.473
	c0,0.172-0.057,0.439-0.057,0.439s5.285,0.002,6.632,0.008C8.825,11.58,8.86,10.65,9.559,10.176c0.489-0.311,1.146-0.43,1.736-0.021
	c0.723,0.453,0.773,1.373,0.624,1.688c0.114-0.006,1.107-0.246,1.426-0.428C13.521,11.314,13.607,10.746,13.554,10.582z
	 M0.738,8.092c-0.203-0.158-0.619-0.816-0.63-0.87C0.096,7.171,0.104,7.13,0.199,7.117c2.982-0.379,4.024-0.333,4.668-0.271
	C4.952,6.854,5.03,6.863,5.105,6.871c0.717,0.075,1.25,0.328,1.504,0.448C6.779,7.4,6.881,7.417,7.646,7.835
	c0,0-0.208,0.12-0.185,0.299c0.023,0.184,0.03,0.667,0.03,0.667S6.834,8.747,5.932,8.666C3.981,8.492,0.875,8.2,0.738,8.092z"/>
<path fill="#FFFFFF" d="M10.438,10.836h-0.008c-0.162,0-0.316,0.062-0.434,0.176c-0.119,0.115-0.186,0.27-0.188,0.434
	c-0.003,0.166,0.059,0.324,0.174,0.443c0.114,0.119,0.269,0.186,0.434,0.189c0.349,0.002,0.624-0.268,0.633-0.609
	C11.052,11.127,10.778,10.844,10.438,10.836 M10.451,10.182c-0.699-0.01-1.276,0.547-1.287,1.246
	c-0.012,0.699,0.544,1.275,1.246,1.289c0.698,0.01,1.272-0.547,1.288-1.246C11.709,10.77,11.15,10.195,10.451,10.182 M11.261,11.473
	c-0.01,0.453-0.383,0.818-0.833,0.818c-0.005,0-0.01-0.002-0.015-0.002c-0.223-0.002-0.43-0.094-0.584-0.254
	c-0.155-0.16-0.237-0.371-0.232-0.594c0.002-0.221,0.092-0.428,0.252-0.582s0.369-0.246,0.594-0.234
	c0.457,0.008,0.823,0.389,0.818,0.846V11.473z"/>
<path fill="none" d="M0.9,10.674c-0.221,0.002-0.44,0.078-0.597,0.232c-0.155,0.15-0.249,0.352-0.251,0.566
	c-0.005,0.217,0.071,0.453,0.221,0.609c0.152,0.158,0.352,0.279,0.571,0.279h0.016c0.211,0,0.439-0.109,0.593-0.258
	c0.157-0.15,0.278-0.369,0.278-0.586V11.51C1.73,11.062,1.348,10.682,0.9,10.674z M1.283,11.932
	c-0.118,0.113-0.271,0.18-0.436,0.172c-0.166-0.002-0.32-0.07-0.434-0.189C0.3,11.797,0.24,11.641,0.244,11.477
	c0.001-0.162,0.066-0.283,0.183-0.396c0.116-0.113,0.269-0.145,0.431-0.145h0.009c0.338,0,0.608,0.256,0.604,0.596
	C1.468,11.695,1.402,11.816,1.283,11.932z"/>
<path fill="#C0BFBF" d="M7.995,0.001c-3.875,0-7.114,2.743-7.841,6.401c1.624-0.221,2.961-0.276,3.853-0.276
	c0.367,0,0.652,0.009,0.86,0.02V5.114l3.326,1.88l3.458-1.88l3.462,1.88l0.767-0.388C15.222,2.854,11.934,0.001,7.995,0.001z"/>
<path fill="none" d="M0.044,11.488c-0.005,0.217,0.075,0.438,0.225,0.594c0.151,0.158,0.355,0.279,0.575,0.279h0.016
	c0.13,0,0.255-0.045,0.369-0.111c-0.043-0.064-0.087-0.127-0.128-0.193c-0.079,0.035-0.164,0.055-0.253,0.051
	c-0.166-0.004-0.32-0.066-0.434-0.186c-0.113-0.117-0.173-0.266-0.169-0.43c0.001-0.162,0.066-0.299,0.183-0.412
	c0.042-0.043,0.091-0.068,0.143-0.092c-0.028-0.07-0.057-0.141-0.083-0.215c-0.071,0.037-0.139,0.082-0.199,0.141
	C0.133,11.064,0.046,11.273,0.044,11.488z"/>
<path fill="#C0BFBF" d="M0.858,10.936h0.009c0.338,0,0.608,0.258,0.604,0.598c-0.003,0.162-0.069,0.285-0.188,0.4
	c-0.054,0.053-0.116,0.094-0.183,0.123c0.042,0.066,0.084,0.129,0.128,0.193c0.069-0.043,0.136-0.09,0.194-0.146
	c0.157-0.15,0.245-0.383,0.249-0.6c0.006-0.447-0.353-0.818-0.8-0.826c-0.137,0-0.267,0.035-0.384,0.098
	c0.026,0.072,0.055,0.143,0.083,0.215C0.658,10.951,0.755,10.936,0.858,10.936z"/>
<path fill="#FFFFFF" d="M1.471,11.533c0.004-0.34-0.266-0.598-0.604-0.598H0.858c-0.103,0-0.2,0.016-0.288,0.053
	c0.149,0.383,0.327,0.742,0.531,1.068c0.067-0.029,0.129-0.07,0.183-0.123C1.402,11.818,1.468,11.695,1.471,11.533z"/>
<path fill="#FFFFFF" d="M2.1,11.539c0.01-0.691-0.538-1.258-1.226-1.27c-0.184-0.004-0.358,0.037-0.517,0.105
	c0.041,0.135,0.083,0.268,0.13,0.398c0.117-0.061,0.276-0.096,0.414-0.096c0.447,0.008,0.83,0.377,0.83,0.826l0,0v0.002
	c0-0.002,0-0.002,0-0.002c0,0.217-0.121,0.449-0.278,0.6c-0.058,0.057-0.139,0.104-0.208,0.146c0.081,0.117,0.158,0.23,0.246,0.338
	C1.851,12.375,2.091,11.988,2.1,11.539z"/>
<polygon fill="#FFFFFF" points="1.671,11.504 1.671,11.504 1.671,11.506 "/>
<path fill="#E3E3E3" d="M0.119,7.237C0.107,7.186,0.115,7.145,0.21,7.132c3.375-0.43,4.266-0.314,4.905-0.247
	c0.717,0.076,1.25,0.328,1.503,0.448c0.17,0.082,0.272,0.098,1.036,0.516c0,0-0.207,0.12-0.184,0.299
	C7.493,8.333,7.5,8.816,7.5,8.816S0.95,8.264,0.75,8.107C0.546,7.948,0.131,7.291,0.119,7.237"/>
<path fill="#C0BFBF" d="M2.739,14.072c0.872,0.57,1.842,1.27,2.982,1.592v-1.592H2.739z"/>
<path fill="#C0BFBF" d="M7.147,15.922c0.285,0.029,0.553,0.076,0.845,0.076c2.003,0,3.812-0.785,5.214-1.926H7.147V15.922z"/>
<path fill="#E3E3E3" d="M13.333,14.012V13.9c-0.041,0.039-0.085,0.074-0.127,0.111H13.333z"/>
<rect x="5.722" y="13.502" fill="#E3E3E3" width="1.426" height="0.57"/>
<g>
	<circle fill="#FFFFFF" cx="12.666" cy="2.392" r="1.123"/>
	<path fill="#943995" d="M12.702,0.181c-1.217,0-2.206,0.988-2.206,2.204c0,0.323,0.141,0.74,0.148,0.765
		c0.541,1.388,1.847,3.962,1.859,3.985c0.06,0.125,0.158,0.138,0.198,0.138c0.082,0,0.156-0.053,0.195-0.136
		c0.014-0.025,1.32-2.6,1.863-3.995c0.006-0.018,0.146-0.435,0.146-0.757C14.906,1.169,13.917,0.181,12.702,0.181 M12.704,3.355
		c-0.541,0-0.981-0.441-0.981-0.981c0-0.541,0.44-0.98,0.981-0.98c0.54,0,0.98,0.439,0.98,0.98
		C13.685,2.914,13.244,3.355,12.704,3.355"/>
</g>
</svg>
