<svg xmlns="http://www.w3.org/2000/svg" xmlns:xlink="http://www.w3.org/1999/xlink" viewBox="0 0 16 16">
<g>
	<path fill="#C0BFBF" d="M16,8c0-4.418-3.581-8-8-8C3.582,0,0,3.582,0,8c0,1.435,0.379,2.78,1.041,3.945
		c1.393-0.602,1.447-0.923,1.475-1.084c0.053-0.3,0.038-0.522-0.046-0.646C2.42,10.142,1.985,9.486,1.884,9.085
		c-0.002-0.008-0.553-1.98,0.229-3.009c0.31-0.405,0.922-0.678,1.524-0.678c0.583,0,1.162,0.266,1.472,0.676
		c0.713,0.942,0.297,2.678,0.207,3.015C5.215,9.486,4.78,10.143,4.73,10.216c-0.082,0.122-0.098,0.347-0.045,0.645
		c0.045,0.263,0.293,0.613,1.792,1.217c1.331,0.533,1.516,1.268,1.527,1.851L8.009,16C12.423,15.995,16,12.416,16,8z"/>
	<path fill="#FFFFFF" d="M6.478,12.077c-1.5-0.604-1.748-0.953-1.793-1.216c-0.053-0.299-0.036-0.522,0.046-0.646
		c0.049-0.073,0.484-0.729,0.584-1.127c0.09-0.337,0.506-2.073-0.207-3.015C4.798,5.663,4.22,5.398,3.637,5.398
		c-0.602,0-1.214,0.273-1.524,0.678c-0.781,1.029-0.23,3.001-0.229,3.01c0.102,0.4,0.537,1.057,0.585,1.13
		c0.083,0.123,0.098,0.346,0.045,0.646c-0.027,0.161-0.082,0.413-1.474,1.015C2.417,14.297,5.017,15.864,8,15.864
		c0.003,0,0.005,0,0.008,0l-0.004-2.007C7.993,13.276,7.809,12.61,6.478,12.077z"/>
</g>
<g>
	<rect x="7.482" y="2.962" fill="#FFFFFF" width="4.167" height="2.976"/>
	<path fill="#943995" d="M9.607,1.189c-1.829,0-3.31,1.482-3.31,3.31c0,0.922,0.377,1.755,0.985,2.356c0,0-1.177,1.494-1.271,1.558
		C5.916,8.477,5.948,8.572,6.075,8.54c0.127-0.032,3.469-0.541,3.469-0.541c1.877-0.127,3.372-1.672,3.372-3.5
		C12.916,2.671,11.435,1.189,9.607,1.189 M11.389,5.74H7.75V5.486h3.638V5.74L11.389,5.74z M11.389,4.551H7.75V4.297h3.638V4.551
		L11.389,4.551z M11.475,3.406H7.751V3.152h3.723V3.406z"/>
</g>
<path fill="#E3E3E3" d="M13.94,10.225l-1.315,0.73l-0.83-1.5l1.328-0.696l-0.303-0.55c-1.087-0.246-2.104,0.393-2.423,1.335
	c-0.06,0.175-0.103,0.628-0.107,0.862l-0.001,0.132l-0.114,0.063c0,0-2.293,1.243-3.452,1.867c-0.302-0.258-0.695-0.416-1.125-0.416
	c-0.956,0-1.732,0.774-1.732,1.731s0.776,1.732,1.732,1.732c0.958,0,1.733-0.775,1.733-1.732c0-0.053-0.003-0.104-0.007-0.154
	l3.646-1.956l0.11,0.068c0.179,0.11,0.452,0.259,0.541,0.291l0.089,0.026c0.983,0.289,2.096-0.114,2.523-1.258L13.94,10.225z
	 M5.987,14.491c-0.398,0.213-0.895,0.063-1.112-0.336c-0.211-0.397-0.063-0.896,0.336-1.11c0.399-0.211,0.895-0.062,1.111,0.339
	C6.534,13.778,6.383,14.275,5.987,14.491"/>
</svg>
